# xmcd
#
# Track frame offsets:
#	150
#	12646
#	23631
#	32959
#	48572
#	61726
#	76472
#	88010
#	102603
#	114093
#	125618
#	137340
#	147952
#	163195
#	175869
#	192773
#	207691
#	218591
#
# Disc length: 3096 seconds
#
# Revision: 2
# Processed by: cddbd v1.5.2PL0 Copyright (c) Steve Scherf et al.
# Submitted via: EasyCDDAExtractor 16.0.8.2
#
DISCID=fe0c1612
DTITLE=Συλλογικός δίσκος - Oldies but goodies 04
DYEAR=2010
DGENRE=Ποικίλη
TTITLE0=Τζαρντανέλλι Λάκης - Το κορίτσι του φίλου μου [ελλ. απόδ. Κ. Τσερώνης]
TTITLE1=Tammy - Νά 'ξερε το φεγγάρι [ελλ. απόδ. Ρέττη Ζαλοκώστα]
TTITLE2=The Sounds - Απόψε σε θέλω [ελλ. απόδ. Νότης Κύτταρης]
TTITLE3=Χρυσός Τέρης - Όνειρα [ελλ. απόδ. Σάσα Μανέττα] 
TTITLE4=Ρούσος Ντέμης-We Five - Don't bring me down
TTITLE5=The Forminx - Jenka beat [Β. Παπαθανασίου-Ν. Μαστοράκης]
TTITLE6=Κουρούκλη Ζωή - Σαν το ρολόϊ [ελλ. απόδ. Αθ. Τσόγκας]
TTITLE7=Τζαρντανέλλι Λάκης - Τραγουδώ τη ζωή [ελλ. απόδ. Ν. Ελληναίος]
TTITLE8=Dave Caroll-Sing Sing Four - Gimmie gimmie good lovin'
TTITLE9=The Idols - Put your hand in the hand
TTITLE10=Γιοβάννα - You don't have to say you love me
TTITLE11=Μαρίνα - Ο κούκλος [Γιώργος Ρωμανός]
TTITLE12=Claudio-The Sky Rockets Combo - Papa's got a brand new bag
TTITLE13=Seagulis - Safari Yenka [Βασ. Τεκνετζόγλου-Ν. Μαστοράκης]
TTITLE14=The M.G.C. - Foxy lady
TTITLE15=The Charms - Νοσταλγία [Τέρης Ιερεμίας-Κώστας Τσερώνης]
TTITLE16=Zoe-The Stormies - The girl of ye ye (Chica ye ye)[ελλ. απόδ. Ν. Μαστ
TTITLE16=οράκης]
TTITLE17=We Five - Κάποιο αγόρι όπως εγώ λάτρευε [ελλ. απ. Ν.Μαστοράκης]
EXTD=YEAR: 2010
EXTT0=
EXTT1=
EXTT2=
EXTT3=
EXTT4=
EXTT5=
EXTT6=
EXTT7=
EXTT8=
EXTT9=
EXTT10=
EXTT11=
EXTT12=
EXTT13=
EXTT14=
EXTT15=
EXTT16=
EXTT17=
PLAYORDER=
